<?xml version="1.0" encoding="iso-8859-1"?>
<!-- Generator: Adobe Illustrator 19.0.0, SVG Export Plug-In . SVG Version: 6.00 Build 0)  -->
<svg version="1.1" id="Layer_1" xmlns="http://www.w3.org/2000/svg" xmlns:xlink="http://www.w3.org/1999/xlink" x="0px" y="0px"
	 viewBox="0 0 512 512" style="enable-background:new 0 0 512 512;" xml:space="preserve">
<path style="fill:#AA6455;" d="M272,89h-32V15.74c0-5.379,4.36-9.74,9.739-9.74h12.521c5.38,0,9.74,4.36,9.74,9.74V89z"/>
<path style="fill:#FFD782;" d="M464,119.5H297v-15.75C297,95.052,284.418,88,280,88h-48c-4.418,0-17,7.052-17,15.75v15.75H48
	c-4.418,0-8,7.051-8,15.75c0,8.698,3.582,15.75,8,15.75h416c4.418,0,8-7.052,8-15.75C472,126.551,468.418,119.5,464,119.5z"/>
<path style="fill:#515262;" d="M128,216l45.255-45.255l0,0C160.758,158.249,144.379,152,128,152V216L128,216z"/>
<g>
	<path style="fill:#EFF2FA;" d="M192,216c0-16.379-6.248-32.758-18.745-45.255L128,216H192z"/>
	<path style="fill:#EFF2FA;" d="M128,152c-16.379,0-32.758,6.249-45.255,18.745L128,216V152z"/>
	<path style="fill:#EFF2FA;" d="M128,216v64c16.379,0,32.758-6.248,45.255-18.745l0,0L128,216L128,216z"/>
</g>
<g>
	<path style="fill:#515262;" d="M128,216l45.255,45.255C185.752,248.758,192,232.379,192,216H128z"/>
	<path style="fill:#515262;" d="M128,216l-45.255-45.255l0,0C70.249,183.242,64,199.621,64,216H128L128,216z"/>
</g>
<path style="fill:#EFF2FA;" d="M128,216H64c0,16.379,6.249,32.758,18.745,45.255l0,0L128,216L128,216z"/>
<path style="fill:#515262;" d="M82.745,261.255C95.242,273.752,111.621,280,128,280v-64L82.745,261.255z"/>
<circle style="fill:#EFF2FA;" cx="128" cy="216" r="33"/>
<path style="fill:#515262;" d="M190.794,328.955l45.255-45.255l0,0c-12.497-12.497-28.876-18.745-45.255-18.745V328.955
	L190.794,328.955z"/>
<g>
	<path style="fill:#EFF2FA;" d="M254.794,328.955c0-16.379-6.249-32.758-18.745-45.255l-45.255,45.255H254.794z"/>
	<path style="fill:#EFF2FA;" d="M190.794,264.955c-16.379,0-32.758,6.248-45.255,18.745l45.255,45.255V264.955z"/>
	<path style="fill:#EFF2FA;" d="M190.794,328.955v64c16.379,0,32.758-6.249,45.255-18.745l0,0L190.794,328.955L190.794,328.955z"/>
</g>
<g>
	<path style="fill:#515262;" d="M190.794,328.955l45.255,45.255c12.497-12.497,18.745-28.876,18.745-45.255H190.794z"/>
	<path style="fill:#515262;" d="M190.794,328.955L145.539,283.7l0,0c-12.497,12.497-18.745,28.876-18.745,45.255L190.794,328.955
		L190.794,328.955z"/>
</g>
<path style="fill:#EFF2FA;" d="M190.794,328.955h-64c0,16.379,6.249,32.758,18.745,45.255l0,0L190.794,328.955L190.794,328.955z"/>
<path style="fill:#515262;" d="M145.539,374.21c12.497,12.497,28.876,18.745,45.255,18.745v-64L145.539,374.21z"/>
<circle style="fill:#EFF2FA;" cx="190.79" cy="328.95" r="33"/>
<path style="fill:#515262;" d="M384,216l45.255-45.255l0,0C416.758,158.249,400.379,152,384,152V216L384,216z"/>
<g>
	<path style="fill:#EFF2FA;" d="M448,216c0-16.379-6.248-32.758-18.745-45.255L384,216H448z"/>
	<path style="fill:#EFF2FA;" d="M384,152c-16.379,0-32.758,6.249-45.255,18.745L384,216V152z"/>
	<path style="fill:#EFF2FA;" d="M384,216v64c16.379,0,32.758-6.248,45.255-18.745l0,0L384,216L384,216z"/>
</g>
<g>
	<path style="fill:#515262;" d="M384,216l45.255,45.255C441.752,248.758,448,232.379,448,216H384z"/>
	<path style="fill:#515262;" d="M384,216l-45.255-45.255l0,0C326.249,183.242,320,199.621,320,216H384L384,216z"/>
</g>
<path style="fill:#EFF2FA;" d="M384,216h-64c0,16.379,6.249,32.758,18.745,45.255l0,0L384,216L384,216z"/>
<path style="fill:#515262;" d="M338.745,261.255C351.242,273.752,367.621,280,384,280v-64L338.745,261.255z"/>
<circle style="fill:#EFF2FA;" cx="384" cy="216" r="33"/>
<path style="fill:#FF6464;" d="M256,441l45.255-45.255l0,0C288.758,383.249,272.379,377,256,377V441L256,441z"/>
<g>
	<path style="fill:#EFF2FA;" d="M320,441c0-16.379-6.248-32.758-18.745-45.255L256,441H320z"/>
	<path style="fill:#EFF2FA;" d="M256,377c-16.379,0-32.758,6.249-45.255,18.745L256,441V377z"/>
	<path style="fill:#EFF2FA;" d="M256,441v64c16.379,0,32.758-6.248,45.255-18.745l0,0L256,441L256,441z"/>
</g>
<g>
	<path style="fill:#FF6464;" d="M256,441l45.255,45.255C313.752,473.758,320,457.379,320,441H256z"/>
	<path style="fill:#FF6464;" d="M256,441l-45.255-45.255l0,0C198.249,408.242,192,424.621,192,441H256L256,441z"/>
</g>
<path style="fill:#EFF2FA;" d="M256,441h-64c0,16.379,6.249,32.758,18.745,45.255l0,0L256,441L256,441z"/>
<path style="fill:#FF6464;" d="M210.745,486.255C223.242,498.752,239.621,505,256,505v-64L210.745,486.255z"/>
<circle style="fill:#EFF2FA;" cx="256" cy="441" r="32"/>
<path style="fill:#FF6464;" d="M320,328l45.255-45.255l0,0C352.758,270.249,336.379,264,320,264V328L320,328z"/>
<g>
	<path style="fill:#EFF2FA;" d="M384,328c0-16.379-6.248-32.758-18.745-45.255L320,328H384z"/>
	<path style="fill:#EFF2FA;" d="M320,264c-16.379,0-32.758,6.249-45.255,18.745L320,328V264z"/>
	<path style="fill:#EFF2FA;" d="M320,328v64c16.379,0,32.758-6.248,45.255-18.745l0,0L320,328L320,328z"/>
</g>
<g>
	<path style="fill:#FF6464;" d="M320,328l45.255,45.255C377.752,360.758,384,344.379,384,328H320z"/>
	<path style="fill:#FF6464;" d="M320,328l-45.255-45.255l0,0C262.249,295.242,256,311.621,256,328H320L320,328z"/>
</g>
<path style="fill:#EFF2FA;" d="M320,328h-64c0,16.379,6.249,32.758,18.745,45.255l0,0L320,328L320,328z"/>
<path style="fill:#FF6464;" d="M274.745,373.255C287.242,385.752,303.621,392,320,392v-64L274.745,373.255z"/>
<circle style="fill:#EFF2FA;" cx="320" cy="328" r="32"/>
<path style="fill:#FF6464;" d="M257,215l45.255-45.255l0,0C289.758,157.249,273.379,151,257,151V215L257,215z"/>
<g>
	<path style="fill:#EFF2FA;" d="M321,215c0-16.379-6.248-32.758-18.745-45.255L257,215H321z"/>
	<path style="fill:#EFF2FA;" d="M257,151c-16.379,0-32.758,6.249-45.255,18.745L257,215V151z"/>
	<path style="fill:#EFF2FA;" d="M257,215v64c16.379,0,32.758-6.248,45.255-18.745l0,0L257,215L257,215z"/>
</g>
<g>
	<path style="fill:#FF6464;" d="M257,215l45.255,45.255C314.752,247.758,321,231.379,321,215H257z"/>
	<path style="fill:#FF6464;" d="M257,215l-45.255-45.255l0,0C199.249,182.242,193,198.621,193,215H257L257,215z"/>
</g>
<path style="fill:#EFF2FA;" d="M257,215h-64c0,16.379,6.249,32.758,18.745,45.255l0,0L257,215L257,215z"/>
<path style="fill:#FF6464;" d="M211.745,260.255C224.242,272.752,240.621,279,257,279v-64L211.745,260.255z"/>
<circle style="fill:#EFF2FA;" cx="257" cy="215" r="32"/>
<g>
	<path style="fill:#2D2B29;" d="M456,112H304v-8c0-13.234-10.766-24-24-24V8c0-4.418-3.582-8-8-8s-8,3.582-8,8v72h-16V8
		c0-4.418-3.582-8-8-8s-8,3.582-8,8v72c-13.234,0-24,10.766-24,24v8H56c-13.234,0-24,10.766-24,24s10.766,24,24,24h26.815
		c-1.752,1.417-3.434,2.914-5.045,4.485c-0.235,0.187-0.464,0.386-0.681,0.603c-0.218,0.218-0.417,0.447-0.604,0.682
		C63.823,178.753,56,196.476,56,216s7.823,37.247,20.484,50.229c0.188,0.235,0.386,0.464,0.604,0.682
		c0.217,0.217,0.446,0.416,0.681,0.603C90.752,280.177,108.476,288,128,288c1.421,0,2.829-0.053,4.229-0.134
		c-7.947,11.827-12.002,25.502-12.174,39.224c-0.034,0.299-0.055,0.601-0.055,0.91s0.021,0.611,0.056,0.911
		c0.228,18.133,7.228,36.196,21.033,50.001c13.805,13.806,31.869,20.806,50.002,21.033c0.299,0.034,0.602,0.056,0.91,0.056
		s0.611-0.021,0.91-0.056c1.124-0.014,2.247-0.053,3.369-0.119C188.529,411.308,184,425.135,184,440
		c0,19.524,7.823,37.247,20.484,50.229c0.188,0.235,0.386,0.464,0.604,0.682c0.217,0.217,0.446,0.416,0.681,0.603
		C218.752,504.177,236.476,512,256,512s37.248-7.823,50.23-20.485c0.235-0.187,0.464-0.386,0.681-0.603
		c0.218-0.218,0.417-0.447,0.604-0.682C320.177,477.247,328,459.524,328,440c0-14.849-4.521-28.661-12.254-40.136
		c1.408,0.083,2.825,0.136,4.254,0.136c19.524,0,37.248-7.823,50.23-20.485c0.235-0.187,0.464-0.386,0.681-0.603
		c0.218-0.218,0.417-0.447,0.604-0.682C384.177,365.247,392,347.524,392,328c0-14.849-4.521-28.661-12.254-40.136
		c1.408,0.083,2.825,0.136,4.254,0.136c19.524,0,37.248-7.823,50.23-20.485c0.235-0.187,0.464-0.386,0.681-0.603
		c0.218-0.218,0.417-0.447,0.604-0.682C448.177,253.247,456,235.524,456,216s-7.823-37.247-20.484-50.229
		c-0.188-0.235-0.386-0.464-0.604-0.682c-0.217-0.217-0.446-0.416-0.681-0.603c-1.611-1.572-3.293-3.069-5.045-4.485H456
		c13.234,0,24-10.766,24-24C480,122.766,469.234,112,456,112z M224,104c0-4.411,3.589-8,8-8h48c4.411,0,8,3.589,8,8v8h-64V104z
		 M439.419,208h-16.224c-1.04-5.1-3.057-9.846-5.839-14.042l11.477-11.477C434.327,189.81,438.058,198.527,439.419,208z
		 M428.833,249.52l-11.477-11.477c2.783-4.197,4.8-8.943,5.839-14.042h16.224C438.058,233.473,434.327,242.19,428.833,249.52z
		 M350.48,260.833l11.477-11.477c4.197,2.783,8.943,4.8,14.042,5.839v16.224C366.527,270.058,357.81,266.326,350.48,260.833z
		 M364.833,361.52l-11.477-11.477c2.783-4.197,4.8-8.943,5.839-14.042h16.224C374.058,345.473,370.327,354.19,364.833,361.52z
		 M286.48,372.833l11.477-11.477c4.197,2.783,8.943,4.8,14.042,5.839v16.224C302.527,382.058,293.81,378.326,286.48,372.833z
		 M300.833,473.52l-11.477-11.477c2.783-4.197,4.8-8.943,5.839-14.042h16.224C310.058,457.473,306.327,466.19,300.833,473.52z
		 M200.581,448h16.224c1.04,5.1,3.057,9.846,5.839,14.042l-11.477,11.477C205.673,466.19,201.942,457.473,200.581,448z M136.57,336
		h16.257c1,4.936,2.93,9.718,5.801,14.059l-11.479,11.48C141.51,354.031,137.892,345.295,136.57,336z M72.581,224h16.224
		c1.04,5.1,3.057,9.846,5.839,14.042L83.167,249.52C77.674,242.19,73.942,233.473,72.581,224z M83.167,182.481l11.477,11.477
		c-2.783,4.196-4.8,8.942-5.839,14.042H72.581C73.942,198.527,77.674,189.81,83.167,182.481z M183.419,208h-16.224
		c-1.04-5.1-3.057-9.846-5.839-14.042l11.477-11.477C178.327,189.81,182.058,198.527,183.419,208z M408,216
		c0,13.233-10.767,24-24,24s-24-10.767-24-24s10.767-24,24-24S408,202.767,408,216z M320,352c-13.233,0-24-10.767-24-24
		s10.767-24,24-24s24,10.767,24,24S333.233,352,320,352z M256,464c-13.233,0-24-10.767-24-24s10.767-24,24-24s24,10.767,24,24
		S269.233,464,256,464z M175.029,344.971c-9.357-9.358-9.357-24.583,0-33.941c4.679-4.679,10.825-7.018,16.971-7.018
		s12.292,2.339,16.971,7.018c9.357,9.358,9.357,24.583,0,33.941C199.613,354.328,184.387,354.328,175.029,344.971z M128,240
		c-13.233,0-24-10.767-24-24s10.767-24,24-24s24,10.767,24,24S141.233,240,128,240z M167.195,224h16.224
		c-1.361,9.473-5.093,18.19-10.586,25.52l-11.477-11.477C164.139,233.846,166.156,229.1,167.195,224z M216.828,224
		c1,4.936,2.93,9.718,5.801,14.059l-11.48,11.48c-5.638-7.507-9.257-16.244-10.578-25.539H216.828z M311.43,224
		c-1.321,9.295-4.94,18.031-10.578,25.539l-11.479-11.48c2.871-4.341,4.801-9.123,5.801-14.059H311.43z M297.958,294.644
		l-11.477-11.477c7.329-5.493,16.047-9.225,25.52-10.586v16.224C306.9,289.844,302.154,291.861,297.958,294.644z M264.581,320
		c1.361-9.473,5.093-18.19,10.586-25.519l11.477,11.477c-2.783,4.196-4.8,8.942-5.839,14.042L264.581,320L264.581,320z M256,368
		c-1.421,0-2.829,0.053-4.229,0.135c1.565-2.33,2.979-4.729,4.242-7.188c1.283,2.481,2.689,4.887,4.242,7.19
		C258.846,368.054,257.429,368,256,368z M231.173,320c-1-4.935-2.93-9.718-5.801-14.059l11.479-11.479
		c5.638,7.507,9.257,16.243,10.578,25.538H231.173z M256,192.011c6.146,0,12.292,2.339,16.971,7.018
		c9.357,9.358,9.357,24.583,0,33.941c-9.357,9.357-24.584,9.357-33.941,0c-9.357-9.358-9.357-24.583,0-33.941
		C243.708,194.351,249.854,192.011,256,192.011z M255.09,287.944c0.299,0.034,0.602,0.056,0.91,0.056
		c0.308,0,0.611-0.021,0.91-0.056c1.124-0.014,2.247-0.053,3.369-0.119c-1.562,2.314-2.976,4.734-4.266,7.229
		c-1.271-2.473-2.694-4.886-4.27-7.227C252.858,287.893,253.974,287.931,255.09,287.944z M264,271.43v-16.257
		c4.936-1,9.718-2.93,14.059-5.801l11.479,11.479C282.031,266.49,273.295,270.108,264,271.43z M233.941,249.372
		c4.341,2.871,9.123,4.801,14.059,5.801v16.257c-9.295-1.322-18.031-4.94-25.538-10.579L233.941,249.372z M192.908,256.055
		c-0.299-0.034-0.6-0.055-0.908-0.055s-0.609,0.021-0.908,0.055c-1.124,0.014-2.248,0.053-3.371,0.12
		c1.562-2.314,2.976-4.734,4.266-7.229c1.271,2.473,2.694,4.886,4.27,7.227C195.141,256.107,194.025,256.069,192.908,256.055z
		 M200,272.57c9.295,1.321,18.031,4.94,25.538,10.578l-11.479,11.479c-4.341-2.871-9.123-4.801-14.059-5.801L200,272.57L200,272.57z
		 M320,256c-1.421,0-2.829,0.053-4.229,0.135c1.565-2.33,2.979-4.729,4.242-7.188c1.283,2.481,2.689,4.887,4.242,7.19
		C322.846,256.054,321.429,256,320,256z M278.059,182.628c-4.341-2.871-9.123-4.801-14.059-5.801V160.57
		c9.295,1.321,18.031,4.94,25.538,10.578L278.059,182.628z M248,176.827c-4.936,1-9.718,2.93-14.059,5.801l-11.479-11.479
		c7.507-5.638,16.243-9.257,25.538-10.578L248,176.827L248,176.827z M184,272.57v16.257c-4.936,1-9.718,2.93-14.059,5.801
		l-11.479-11.479C165.969,277.511,174.705,273.892,184,272.57z M231.173,336h16.257c-1.321,9.295-4.94,18.031-10.578,25.539
		l-11.479-11.48C228.243,345.718,230.173,340.936,231.173,336z M248,384.581v16.224c-5.1,1.04-9.846,3.057-14.042,5.839
		l-11.477-11.477C229.81,389.674,238.527,385.942,248,384.581z M278.042,406.644c-4.197-2.782-8.943-4.799-14.042-5.839v-16.224
		c9.473,1.362,18.19,5.093,25.52,10.586L278.042,406.644z M275.167,361.52c-5.494-7.329-9.225-16.047-10.586-25.52h16.224
		c1.04,5.1,3.057,9.846,5.839,14.042L275.167,361.52z M342.042,294.644c-4.197-2.782-8.943-4.799-14.042-5.839v-16.224
		c9.473,1.362,18.19,5.093,25.52,10.586L342.042,294.644z M339.167,249.52c-5.494-7.329-9.225-16.047-10.586-25.52h16.224
		c1.04,5.1,3.057,9.846,5.839,14.042L339.167,249.52z M376,176.805c-5.1,1.04-9.846,3.057-14.042,5.839l-11.477-11.477
		c7.329-5.493,16.047-9.225,25.52-10.586v16.224H376z M339.167,182.481l11.477,11.477c-2.783,4.196-4.8,8.942-5.839,14.042h-16.224
		C329.942,198.527,333.673,189.81,339.167,182.481z M295.173,208c-1-4.935-2.93-9.718-5.801-14.059l11.479-11.479
		c5.638,7.507,9.257,16.243,10.578,25.538L295.173,208L295.173,208z M211.148,182.462l11.48,11.479
		c-2.871,4.341-4.801,9.124-5.801,14.059H200.57C201.892,198.705,205.51,189.969,211.148,182.462z M150.042,182.644
		c-4.197-2.782-8.943-4.799-14.042-5.839v-16.224c9.473,1.362,18.19,5.093,25.52,10.586L150.042,182.644z M120,176.805
		c-5.1,1.04-9.846,3.057-14.042,5.839L94.48,171.167c7.329-5.493,16.047-9.225,25.52-10.586V176.805z M105.958,249.356
		c4.197,2.783,8.943,4.8,14.042,5.839v16.224c-9.473-1.361-18.19-5.093-25.52-10.586L105.958,249.356z M136,255.195
		c5.1-1.04,9.846-3.057,14.042-5.839l11.477,11.477c-7.329,5.493-16.047,9.225-25.52,10.586v-16.224H136z M147.148,294.462
		l11.479,11.479c-2.871,4.341-4.801,9.124-5.801,14.059H136.57C137.892,310.705,141.51,301.969,147.148,294.462z M169.941,361.372
		c4.341,2.871,9.123,4.801,14.059,5.801v16.257c-9.295-1.322-18.031-4.94-25.538-10.579L169.941,361.372z M200,367.173
		c4.936-1,9.718-2.93,14.059-5.801l11.479,11.479c-7.507,5.638-16.243,9.257-25.538,10.579L200,367.173L200,367.173z
		 M211.167,406.481l11.477,11.477c-2.783,4.196-4.8,8.942-5.839,14.042h-16.224C201.942,422.527,205.673,413.81,211.167,406.481z
		 M233.958,473.356c4.197,2.783,8.943,4.8,14.042,5.839v16.224c-9.473-1.361-18.19-5.093-25.52-10.586L233.958,473.356z
		 M264,479.195c5.1-1.04,9.846-3.057,14.042-5.839l11.477,11.477c-7.329,5.493-16.047,9.225-25.52,10.586v-16.224H264z M295.195,432
		c-1.04-5.1-3.057-9.846-5.839-14.042l11.477-11.477c5.494,7.329,9.225,16.046,10.586,25.519L295.195,432L295.195,432z M328,367.195
		c5.1-1.04,9.846-3.057,14.042-5.839l11.477,11.477c-7.329,5.493-16.047,9.225-25.52,10.586v-16.224H328z M359.195,320
		c-1.04-5.1-3.057-9.846-5.839-14.042l11.477-11.477c5.494,7.329,9.225,16.046,10.586,25.519L359.195,320L359.195,320z M392,255.195
		c5.1-1.04,9.846-3.057,14.042-5.839l11.477,11.477c-7.329,5.493-16.047,9.225-25.52,10.586v-16.224H392z M406.042,182.644
		c-4.197-2.782-8.943-4.799-14.042-5.839v-16.224c9.473,1.362,18.19,5.093,25.52,10.586L406.042,182.644z M333.77,164.485
		c-0.235,0.187-0.464,0.386-0.681,0.603c-0.218,0.218-0.417,0.447-0.604,0.682c-4.964,5.09-9.177,10.91-12.472,17.283
		c-3.326-6.474-7.685-12.549-13.101-17.965c-1.815-1.815-3.707-3.508-5.66-5.088h37.563
		C337.063,161.417,335.381,162.914,333.77,164.485z M205.088,165.088c-5.416,5.416-9.775,11.492-13.102,17.965
		c-3.294-6.373-7.507-12.193-12.471-17.283c-0.188-0.235-0.386-0.464-0.604-0.682c-0.217-0.217-0.446-0.416-0.681-0.603
		c-1.611-1.572-3.293-3.069-5.045-4.485h37.563C208.795,161.581,206.904,163.273,205.088,165.088z M456,144H56c-4.411,0-8-3.589-8-8
		s3.589-8,8-8h400c4.411,0,8,3.589,8,8S460.411,144,456,144z"/>
	<path style="fill:#2D2B29;" d="M250.343,229.657c2.047,0,4.095-0.781,5.657-2.344L267.313,216c3.125-3.124,3.125-8.189,0-11.313
		c-3.124-3.124-8.189-3.124-11.313,0L244.687,216c-3.125,3.124-3.125,8.189,0,11.313
		C246.249,228.876,248.296,229.657,250.343,229.657z"/>
	<path style="fill:#2D2B29;" d="M376,208v16c0,4.418,3.582,8,8,8s8-3.582,8-8v-16c0-4.418-3.582-8-8-8S376,203.582,376,208z"/>
	<path style="fill:#2D2B29;" d="M128,200c-4.418,0-8,3.582-8,8v16c0,4.418,3.582,8,8,8s8-3.582,8-8v-16
		C136,203.582,132.418,200,128,200z"/>
	<path style="fill:#2D2B29;" d="M320,312c-4.418,0-8,3.582-8,8v16c0,4.418,3.582,8,8,8s8-3.582,8-8v-16
		C328,315.582,324.418,312,320,312z"/>
	<path style="fill:#2D2B29;" d="M192,316.687c-3.124-3.124-8.189-3.124-11.313,0c-3.125,3.124-3.125,8.189,0,11.313L192,339.313
		c1.562,1.563,3.609,2.344,5.657,2.344s4.095-0.781,5.657-2.344c3.125-3.124,3.125-8.189,0-11.313L192,316.687z"/>
	<path style="fill:#2D2B29;" d="M264,432h-16c-4.418,0-8,3.582-8,8s3.582,8,8,8h16c4.418,0,8-3.582,8-8S268.418,432,264,432z"/>
</g>
<g>
</g>
<g>
</g>
<g>
</g>
<g>
</g>
<g>
</g>
<g>
</g>
<g>
</g>
<g>
</g>
<g>
</g>
<g>
</g>
<g>
</g>
<g>
</g>
<g>
</g>
<g>
</g>
<g>
</g>
</svg>
